<mxfile host="app.diagrams.net" modified="2024-05-10T15:57:04.701Z" agent="Mozilla/5.0 (Windows NT 10.0; Win64; x64) AppleWebKit/537.36 (KHTML, like Gecko) Chrome/124.0.0.0 Safari/537.36" etag="ORIJajkjdYtWw0w_5lyU" version="24.3.1" type="github">
  <diagram id="C5RBs43oDa-KdzZeNtuy" name="Page-1">
    <mxGraphModel dx="1195" dy="643" grid="1" gridSize="10" guides="1" tooltips="1" connect="1" arrows="1" fold="1" page="1" pageScale="1" pageWidth="827" pageHeight="1169" math="0" shadow="0">
      <root>
        <mxCell id="WIyWlLk6GJQsqaUBKTNV-0" />
        <mxCell id="WIyWlLk6GJQsqaUBKTNV-1" parent="WIyWlLk6GJQsqaUBKTNV-0" />
        <mxCell id="70iiwPook1v8mqMDfSH0-3" value="" style="rounded=0;whiteSpace=wrap;html=1;dashed=1;" vertex="1" parent="WIyWlLk6GJQsqaUBKTNV-1">
          <mxGeometry x="280" y="90" width="170" height="820" as="geometry" />
        </mxCell>
        <mxCell id="70iiwPook1v8mqMDfSH0-4" value="Contract" style="text;strokeColor=none;align=center;fillColor=none;html=1;verticalAlign=middle;whiteSpace=wrap;rounded=0;" vertex="1" parent="WIyWlLk6GJQsqaUBKTNV-1">
          <mxGeometry x="310" y="60" width="110" height="30" as="geometry" />
        </mxCell>
        <mxCell id="70iiwPook1v8mqMDfSH0-5" value="" style="rounded=0;whiteSpace=wrap;html=1;dashed=1;" vertex="1" parent="WIyWlLk6GJQsqaUBKTNV-1">
          <mxGeometry x="10" y="90" width="170" height="820" as="geometry" />
        </mxCell>
        <mxCell id="70iiwPook1v8mqMDfSH0-6" value="FRONT-END" style="text;strokeColor=none;align=center;fillColor=none;html=1;verticalAlign=middle;whiteSpace=wrap;rounded=0;" vertex="1" parent="WIyWlLk6GJQsqaUBKTNV-1">
          <mxGeometry x="40" y="60" width="110" height="30" as="geometry" />
        </mxCell>
        <mxCell id="70iiwPook1v8mqMDfSH0-7" value="" style="rounded=0;whiteSpace=wrap;html=1;dashed=1;" vertex="1" parent="WIyWlLk6GJQsqaUBKTNV-1">
          <mxGeometry x="580" y="90" width="170" height="840" as="geometry" />
        </mxCell>
        <mxCell id="70iiwPook1v8mqMDfSH0-8" value="BACK-END" style="text;strokeColor=none;align=center;fillColor=none;html=1;verticalAlign=middle;whiteSpace=wrap;rounded=0;" vertex="1" parent="WIyWlLk6GJQsqaUBKTNV-1">
          <mxGeometry x="610" y="60" width="110" height="30" as="geometry" />
        </mxCell>
        <mxCell id="70iiwPook1v8mqMDfSH0-9" value="Request RNG" style="rounded=0;whiteSpace=wrap;html=1;" vertex="1" parent="WIyWlLk6GJQsqaUBKTNV-1">
          <mxGeometry x="605" y="110" width="120" height="20" as="geometry" />
        </mxCell>
        <mxCell id="70iiwPook1v8mqMDfSH0-10" value="" style="endArrow=classic;html=1;rounded=0;exitX=0;exitY=0.5;exitDx=0;exitDy=0;entryX=1;entryY=0.5;entryDx=0;entryDy=0;" edge="1" parent="WIyWlLk6GJQsqaUBKTNV-1" source="70iiwPook1v8mqMDfSH0-9" target="70iiwPook1v8mqMDfSH0-12">
          <mxGeometry width="50" height="50" relative="1" as="geometry">
            <mxPoint x="510" y="170" as="sourcePoint" />
            <mxPoint x="566.9999999999998" y="140.0000000000001" as="targetPoint" />
          </mxGeometry>
        </mxCell>
        <mxCell id="70iiwPook1v8mqMDfSH0-28" value="Contract trx" style="edgeLabel;html=1;align=center;verticalAlign=middle;resizable=0;points=[];" vertex="1" connectable="0" parent="70iiwPook1v8mqMDfSH0-10">
          <mxGeometry x="0.0683" relative="1" as="geometry">
            <mxPoint as="offset" />
          </mxGeometry>
        </mxCell>
        <mxCell id="70iiwPook1v8mqMDfSH0-77" style="edgeStyle=orthogonalEdgeStyle;rounded=0;orthogonalLoop=1;jettySize=auto;html=1;exitX=0.5;exitY=1;exitDx=0;exitDy=0;entryX=0;entryY=0.5;entryDx=0;entryDy=0;" edge="1" parent="WIyWlLk6GJQsqaUBKTNV-1" source="70iiwPook1v8mqMDfSH0-12" target="70iiwPook1v8mqMDfSH0-16">
          <mxGeometry relative="1" as="geometry" />
        </mxCell>
        <mxCell id="70iiwPook1v8mqMDfSH0-12" value="Generate Stop-Time" style="rounded=0;whiteSpace=wrap;html=1;" vertex="1" parent="WIyWlLk6GJQsqaUBKTNV-1">
          <mxGeometry x="305" y="110" width="120" height="20" as="geometry" />
        </mxCell>
        <mxCell id="70iiwPook1v8mqMDfSH0-16" value="Start Timer" style="rounded=0;whiteSpace=wrap;html=1;" vertex="1" parent="WIyWlLk6GJQsqaUBKTNV-1">
          <mxGeometry x="605" y="160" width="120" height="20" as="geometry" />
        </mxCell>
        <mxCell id="70iiwPook1v8mqMDfSH0-30" value="Broadcast &quot;Start&quot;" style="rounded=0;whiteSpace=wrap;html=1;" vertex="1" parent="WIyWlLk6GJQsqaUBKTNV-1">
          <mxGeometry x="605" y="210" width="120" height="20" as="geometry" />
        </mxCell>
        <mxCell id="70iiwPook1v8mqMDfSH0-31" value="" style="endArrow=classic;html=1;rounded=0;exitX=0.5;exitY=1;exitDx=0;exitDy=0;entryX=0.5;entryY=0;entryDx=0;entryDy=0;" edge="1" parent="WIyWlLk6GJQsqaUBKTNV-1" source="70iiwPook1v8mqMDfSH0-16" target="70iiwPook1v8mqMDfSH0-30">
          <mxGeometry width="50" height="50" relative="1" as="geometry">
            <mxPoint x="640" y="245" as="sourcePoint" />
            <mxPoint x="690" y="195" as="targetPoint" />
          </mxGeometry>
        </mxCell>
        <mxCell id="70iiwPook1v8mqMDfSH0-33" value="Start Timer" style="rounded=0;whiteSpace=wrap;html=1;" vertex="1" parent="WIyWlLk6GJQsqaUBKTNV-1">
          <mxGeometry x="35" y="210" width="120" height="20" as="geometry" />
        </mxCell>
        <mxCell id="70iiwPook1v8mqMDfSH0-34" value="" style="endArrow=classic;html=1;rounded=0;exitX=0;exitY=0.5;exitDx=0;exitDy=0;entryX=1;entryY=0.5;entryDx=0;entryDy=0;" edge="1" parent="WIyWlLk6GJQsqaUBKTNV-1" source="70iiwPook1v8mqMDfSH0-30" target="70iiwPook1v8mqMDfSH0-33">
          <mxGeometry width="50" height="50" relative="1" as="geometry">
            <mxPoint x="560" y="219.64" as="sourcePoint" />
            <mxPoint x="380" y="219.64" as="targetPoint" />
          </mxGeometry>
        </mxCell>
        <mxCell id="70iiwPook1v8mqMDfSH0-35" value="Web Socket" style="edgeLabel;html=1;align=center;verticalAlign=middle;resizable=0;points=[];" vertex="1" connectable="0" parent="70iiwPook1v8mqMDfSH0-34">
          <mxGeometry x="0.0683" relative="1" as="geometry">
            <mxPoint x="146" as="offset" />
          </mxGeometry>
        </mxCell>
        <mxCell id="70iiwPook1v8mqMDfSH0-36" value="Display Chart&amp;nbsp;" style="ellipse;whiteSpace=wrap;html=1;" vertex="1" parent="WIyWlLk6GJQsqaUBKTNV-1">
          <mxGeometry x="35" y="270" width="120" height="30" as="geometry" />
        </mxCell>
        <mxCell id="70iiwPook1v8mqMDfSH0-37" value="" style="endArrow=classic;html=1;rounded=0;exitX=0.5;exitY=1;exitDx=0;exitDy=0;entryX=0.5;entryY=0;entryDx=0;entryDy=0;" edge="1" parent="WIyWlLk6GJQsqaUBKTNV-1" source="70iiwPook1v8mqMDfSH0-33" target="70iiwPook1v8mqMDfSH0-36">
          <mxGeometry width="50" height="50" relative="1" as="geometry">
            <mxPoint x="80" y="300" as="sourcePoint" />
            <mxPoint x="130" y="250" as="targetPoint" />
          </mxGeometry>
        </mxCell>
        <mxCell id="70iiwPook1v8mqMDfSH0-38" value="Check If it&#39;s over or not" style="rhombus;whiteSpace=wrap;html=1;" vertex="1" parent="WIyWlLk6GJQsqaUBKTNV-1">
          <mxGeometry x="330" y="245" width="80" height="85" as="geometry" />
        </mxCell>
        <mxCell id="70iiwPook1v8mqMDfSH0-39" value="" style="endArrow=classic;html=1;rounded=0;exitX=1;exitY=0.5;exitDx=0;exitDy=0;entryX=0;entryY=0.5;entryDx=0;entryDy=0;" edge="1" parent="WIyWlLk6GJQsqaUBKTNV-1" source="70iiwPook1v8mqMDfSH0-36" target="70iiwPook1v8mqMDfSH0-38">
          <mxGeometry width="50" height="50" relative="1" as="geometry">
            <mxPoint x="260" y="320" as="sourcePoint" />
            <mxPoint x="310" y="270" as="targetPoint" />
          </mxGeometry>
        </mxCell>
        <mxCell id="70iiwPook1v8mqMDfSH0-40" value="Get Real-time Info" style="edgeLabel;html=1;align=center;verticalAlign=middle;resizable=0;points=[];" vertex="1" connectable="0" parent="70iiwPook1v8mqMDfSH0-39">
          <mxGeometry x="-0.2212" relative="1" as="geometry">
            <mxPoint x="7" as="offset" />
          </mxGeometry>
        </mxCell>
        <mxCell id="70iiwPook1v8mqMDfSH0-44" value="" style="endArrow=none;html=1;rounded=0;" edge="1" parent="WIyWlLk6GJQsqaUBKTNV-1">
          <mxGeometry width="50" height="50" relative="1" as="geometry">
            <mxPoint x="370" y="390" as="sourcePoint" />
            <mxPoint x="370" y="330" as="targetPoint" />
          </mxGeometry>
        </mxCell>
        <mxCell id="70iiwPook1v8mqMDfSH0-47" value="" style="endArrow=none;html=1;rounded=0;" edge="1" parent="WIyWlLk6GJQsqaUBKTNV-1">
          <mxGeometry width="50" height="50" relative="1" as="geometry">
            <mxPoint x="95" y="360" as="sourcePoint" />
            <mxPoint x="370" y="360" as="targetPoint" />
          </mxGeometry>
        </mxCell>
        <mxCell id="70iiwPook1v8mqMDfSH0-49" value="Before Crash" style="edgeLabel;html=1;align=center;verticalAlign=middle;resizable=0;points=[];" vertex="1" connectable="0" parent="70iiwPook1v8mqMDfSH0-47">
          <mxGeometry x="-0.1823" y="-1" relative="1" as="geometry">
            <mxPoint x="23" as="offset" />
          </mxGeometry>
        </mxCell>
        <mxCell id="70iiwPook1v8mqMDfSH0-48" value="" style="endArrow=classic;html=1;rounded=0;entryX=0.5;entryY=1;entryDx=0;entryDy=0;" edge="1" parent="WIyWlLk6GJQsqaUBKTNV-1" target="70iiwPook1v8mqMDfSH0-36">
          <mxGeometry width="50" height="50" relative="1" as="geometry">
            <mxPoint x="95" y="360" as="sourcePoint" />
            <mxPoint x="310" y="340" as="targetPoint" />
          </mxGeometry>
        </mxCell>
        <mxCell id="70iiwPook1v8mqMDfSH0-50" value="" style="endArrow=classic;html=1;rounded=0;entryX=1;entryY=0.5;entryDx=0;entryDy=0;" edge="1" parent="WIyWlLk6GJQsqaUBKTNV-1" target="70iiwPook1v8mqMDfSH0-51">
          <mxGeometry width="50" height="50" relative="1" as="geometry">
            <mxPoint x="370" y="391" as="sourcePoint" />
            <mxPoint x="230" y="441" as="targetPoint" />
          </mxGeometry>
        </mxCell>
        <mxCell id="70iiwPook1v8mqMDfSH0-52" value="Crashed" style="edgeLabel;html=1;align=center;verticalAlign=middle;resizable=0;points=[];" vertex="1" connectable="0" parent="70iiwPook1v8mqMDfSH0-50">
          <mxGeometry x="0.2266" relative="1" as="geometry">
            <mxPoint x="-8" as="offset" />
          </mxGeometry>
        </mxCell>
        <mxCell id="70iiwPook1v8mqMDfSH0-51" value="End Chart" style="rounded=0;whiteSpace=wrap;html=1;" vertex="1" parent="WIyWlLk6GJQsqaUBKTNV-1">
          <mxGeometry x="35" y="381" width="120" height="20" as="geometry" />
        </mxCell>
        <mxCell id="70iiwPook1v8mqMDfSH0-53" value="" style="endArrow=classic;html=1;rounded=0;exitX=0.5;exitY=1;exitDx=0;exitDy=0;entryX=0.5;entryY=0;entryDx=0;entryDy=0;" edge="1" parent="WIyWlLk6GJQsqaUBKTNV-1" target="70iiwPook1v8mqMDfSH0-54">
          <mxGeometry width="50" height="50" relative="1" as="geometry">
            <mxPoint x="664.64" y="230" as="sourcePoint" />
            <mxPoint x="664.64" y="270" as="targetPoint" />
          </mxGeometry>
        </mxCell>
        <mxCell id="70iiwPook1v8mqMDfSH0-54" value="Checking Crash" style="ellipse;whiteSpace=wrap;html=1;" vertex="1" parent="WIyWlLk6GJQsqaUBKTNV-1">
          <mxGeometry x="605" y="272.5" width="120" height="30" as="geometry" />
        </mxCell>
        <mxCell id="70iiwPook1v8mqMDfSH0-56" value="" style="endArrow=classic;html=1;rounded=0;exitX=0;exitY=0.5;exitDx=0;exitDy=0;entryX=1;entryY=0.5;entryDx=0;entryDy=0;" edge="1" parent="WIyWlLk6GJQsqaUBKTNV-1" source="70iiwPook1v8mqMDfSH0-54" target="70iiwPook1v8mqMDfSH0-38">
          <mxGeometry width="50" height="50" relative="1" as="geometry">
            <mxPoint x="435" y="360" as="sourcePoint" />
            <mxPoint x="610" y="363" as="targetPoint" />
          </mxGeometry>
        </mxCell>
        <mxCell id="70iiwPook1v8mqMDfSH0-57" value="Get Real-time Info" style="edgeLabel;html=1;align=center;verticalAlign=middle;resizable=0;points=[];" vertex="1" connectable="0" parent="70iiwPook1v8mqMDfSH0-56">
          <mxGeometry x="-0.2212" relative="1" as="geometry">
            <mxPoint x="7" as="offset" />
          </mxGeometry>
        </mxCell>
        <mxCell id="70iiwPook1v8mqMDfSH0-59" value="" style="endArrow=none;html=1;rounded=0;" edge="1" parent="WIyWlLk6GJQsqaUBKTNV-1">
          <mxGeometry width="50" height="50" relative="1" as="geometry">
            <mxPoint x="370" y="360" as="sourcePoint" />
            <mxPoint x="665" y="360" as="targetPoint" />
          </mxGeometry>
        </mxCell>
        <mxCell id="70iiwPook1v8mqMDfSH0-60" value="Before Crash" style="edgeLabel;html=1;align=center;verticalAlign=middle;resizable=0;points=[];" vertex="1" connectable="0" parent="70iiwPook1v8mqMDfSH0-59">
          <mxGeometry x="-0.1823" y="-1" relative="1" as="geometry">
            <mxPoint x="23" as="offset" />
          </mxGeometry>
        </mxCell>
        <mxCell id="70iiwPook1v8mqMDfSH0-61" value="" style="endArrow=classic;html=1;rounded=0;entryX=0.5;entryY=1;entryDx=0;entryDy=0;" edge="1" parent="WIyWlLk6GJQsqaUBKTNV-1">
          <mxGeometry width="50" height="50" relative="1" as="geometry">
            <mxPoint x="665" y="360" as="sourcePoint" />
            <mxPoint x="664.71" y="302.5" as="targetPoint" />
          </mxGeometry>
        </mxCell>
        <mxCell id="70iiwPook1v8mqMDfSH0-62" value="" style="endArrow=classic;html=1;rounded=0;entryX=0;entryY=0.5;entryDx=0;entryDy=0;" edge="1" parent="WIyWlLk6GJQsqaUBKTNV-1" target="70iiwPook1v8mqMDfSH0-64">
          <mxGeometry width="50" height="50" relative="1" as="geometry">
            <mxPoint x="370" y="391" as="sourcePoint" />
            <mxPoint x="540" y="421" as="targetPoint" />
          </mxGeometry>
        </mxCell>
        <mxCell id="70iiwPook1v8mqMDfSH0-63" value="Crashed" style="edgeLabel;html=1;align=center;verticalAlign=middle;resizable=0;points=[];" vertex="1" connectable="0" parent="70iiwPook1v8mqMDfSH0-62">
          <mxGeometry x="0.2266" relative="1" as="geometry">
            <mxPoint x="-8" as="offset" />
          </mxGeometry>
        </mxCell>
        <mxCell id="70iiwPook1v8mqMDfSH0-72" style="edgeStyle=orthogonalEdgeStyle;rounded=0;orthogonalLoop=1;jettySize=auto;html=1;exitX=1;exitY=0.5;exitDx=0;exitDy=0;entryX=1;entryY=0.5;entryDx=0;entryDy=0;" edge="1" parent="WIyWlLk6GJQsqaUBKTNV-1" source="70iiwPook1v8mqMDfSH0-64" target="70iiwPook1v8mqMDfSH0-9">
          <mxGeometry relative="1" as="geometry">
            <mxPoint x="789.9999999999998" y="390.75862068965523" as="targetPoint" />
            <Array as="points">
              <mxPoint x="770" y="391" />
              <mxPoint x="770" y="120" />
            </Array>
          </mxGeometry>
        </mxCell>
        <mxCell id="70iiwPook1v8mqMDfSH0-64" value="Broadcast &quot;End&quot;" style="rounded=0;whiteSpace=wrap;html=1;" vertex="1" parent="WIyWlLk6GJQsqaUBKTNV-1">
          <mxGeometry x="605" y="381" width="120" height="20" as="geometry" />
        </mxCell>
        <mxCell id="70iiwPook1v8mqMDfSH0-66" value="" style="endArrow=none;html=1;rounded=0;entryX=0.5;entryY=1;entryDx=0;entryDy=0;exitX=0.5;exitY=0.739;exitDx=0;exitDy=0;exitPerimeter=0;" edge="1" parent="WIyWlLk6GJQsqaUBKTNV-1" target="70iiwPook1v8mqMDfSH0-64">
          <mxGeometry width="50" height="50" relative="1" as="geometry">
            <mxPoint x="664.9999999999998" y="430.94000000000005" as="sourcePoint" />
            <mxPoint x="680" y="441" as="targetPoint" />
          </mxGeometry>
        </mxCell>
        <mxCell id="70iiwPook1v8mqMDfSH0-68" value="" style="endArrow=none;html=1;rounded=0;entryX=0.5;entryY=0.739;entryDx=0;entryDy=0;entryPerimeter=0;" edge="1" parent="WIyWlLk6GJQsqaUBKTNV-1">
          <mxGeometry width="50" height="50" relative="1" as="geometry">
            <mxPoint x="95" y="431" as="sourcePoint" />
            <mxPoint x="664.9999999999998" y="430.94000000000005" as="targetPoint" />
          </mxGeometry>
        </mxCell>
        <mxCell id="70iiwPook1v8mqMDfSH0-70" value="Web Socket" style="edgeLabel;html=1;align=center;verticalAlign=middle;resizable=0;points=[];" vertex="1" connectable="0" parent="70iiwPook1v8mqMDfSH0-68">
          <mxGeometry x="0.4357" relative="1" as="geometry">
            <mxPoint as="offset" />
          </mxGeometry>
        </mxCell>
        <mxCell id="70iiwPook1v8mqMDfSH0-69" value="" style="endArrow=classic;html=1;rounded=0;entryX=0.5;entryY=1;entryDx=0;entryDy=0;" edge="1" parent="WIyWlLk6GJQsqaUBKTNV-1">
          <mxGeometry width="50" height="50" relative="1" as="geometry">
            <mxPoint x="95" y="431" as="sourcePoint" />
            <mxPoint x="94.83" y="401" as="targetPoint" />
          </mxGeometry>
        </mxCell>
        <mxCell id="70iiwPook1v8mqMDfSH0-75" style="edgeStyle=orthogonalEdgeStyle;rounded=0;orthogonalLoop=1;jettySize=auto;html=1;exitX=1;exitY=0.5;exitDx=0;exitDy=0;entryX=0;entryY=0.5;entryDx=0;entryDy=0;" edge="1" parent="WIyWlLk6GJQsqaUBKTNV-1" source="70iiwPook1v8mqMDfSH0-73" target="70iiwPook1v8mqMDfSH0-74">
          <mxGeometry relative="1" as="geometry" />
        </mxCell>
        <mxCell id="70iiwPook1v8mqMDfSH0-73" value="Bet" style="rounded=0;whiteSpace=wrap;html=1;" vertex="1" parent="WIyWlLk6GJQsqaUBKTNV-1">
          <mxGeometry x="35" y="490" width="120" height="20" as="geometry" />
        </mxCell>
        <mxCell id="70iiwPook1v8mqMDfSH0-79" style="edgeStyle=orthogonalEdgeStyle;rounded=0;orthogonalLoop=1;jettySize=auto;html=1;exitX=0.5;exitY=1;exitDx=0;exitDy=0;entryX=1;entryY=0.5;entryDx=0;entryDy=0;" edge="1" parent="WIyWlLk6GJQsqaUBKTNV-1" source="70iiwPook1v8mqMDfSH0-74" target="70iiwPook1v8mqMDfSH0-78">
          <mxGeometry relative="1" as="geometry" />
        </mxCell>
        <mxCell id="70iiwPook1v8mqMDfSH0-80" value="YES" style="edgeLabel;html=1;align=center;verticalAlign=middle;resizable=0;points=[];" vertex="1" connectable="0" parent="70iiwPook1v8mqMDfSH0-79">
          <mxGeometry x="-0.3931" y="-3" relative="1" as="geometry">
            <mxPoint x="-4" y="3" as="offset" />
          </mxGeometry>
        </mxCell>
        <mxCell id="70iiwPook1v8mqMDfSH0-74" value="Check if the betting is available" style="rhombus;whiteSpace=wrap;html=1;" vertex="1" parent="WIyWlLk6GJQsqaUBKTNV-1">
          <mxGeometry x="625" y="460" width="80" height="80" as="geometry" />
        </mxCell>
        <mxCell id="70iiwPook1v8mqMDfSH0-78" value="Withdraw" style="rounded=0;whiteSpace=wrap;html=1;" vertex="1" parent="WIyWlLk6GJQsqaUBKTNV-1">
          <mxGeometry x="35" y="550" width="120" height="20" as="geometry" />
        </mxCell>
        <mxCell id="70iiwPook1v8mqMDfSH0-88" style="edgeStyle=orthogonalEdgeStyle;rounded=0;orthogonalLoop=1;jettySize=auto;html=1;exitX=1;exitY=0.5;exitDx=0;exitDy=0;entryX=0;entryY=0.5;entryDx=0;entryDy=0;" edge="1" parent="WIyWlLk6GJQsqaUBKTNV-1" source="70iiwPook1v8mqMDfSH0-82" target="70iiwPook1v8mqMDfSH0-86">
          <mxGeometry relative="1" as="geometry" />
        </mxCell>
        <mxCell id="70iiwPook1v8mqMDfSH0-82" value="Manual Claim" style="rounded=0;whiteSpace=wrap;html=1;" vertex="1" parent="WIyWlLk6GJQsqaUBKTNV-1">
          <mxGeometry x="35" y="620" width="120" height="20" as="geometry" />
        </mxCell>
        <mxCell id="70iiwPook1v8mqMDfSH0-84" value="Save History" style="rounded=0;whiteSpace=wrap;html=1;" vertex="1" parent="WIyWlLk6GJQsqaUBKTNV-1">
          <mxGeometry x="610" y="730" width="120" height="20" as="geometry" />
        </mxCell>
        <mxCell id="70iiwPook1v8mqMDfSH0-90" style="edgeStyle=orthogonalEdgeStyle;rounded=0;orthogonalLoop=1;jettySize=auto;html=1;exitX=0.5;exitY=1;exitDx=0;exitDy=0;entryX=1;entryY=0.5;entryDx=0;entryDy=0;" edge="1" parent="WIyWlLk6GJQsqaUBKTNV-1" source="70iiwPook1v8mqMDfSH0-86" target="70iiwPook1v8mqMDfSH0-89">
          <mxGeometry relative="1" as="geometry" />
        </mxCell>
        <mxCell id="70iiwPook1v8mqMDfSH0-86" value="Check If it&#39;s over or not" style="rhombus;whiteSpace=wrap;html=1;" vertex="1" parent="WIyWlLk6GJQsqaUBKTNV-1">
          <mxGeometry x="330" y="587.5" width="80" height="85" as="geometry" />
        </mxCell>
        <mxCell id="70iiwPook1v8mqMDfSH0-95" style="edgeStyle=orthogonalEdgeStyle;rounded=0;orthogonalLoop=1;jettySize=auto;html=1;exitX=0.5;exitY=1;exitDx=0;exitDy=0;entryX=0;entryY=0.75;entryDx=0;entryDy=0;" edge="1" parent="WIyWlLk6GJQsqaUBKTNV-1" source="70iiwPook1v8mqMDfSH0-89" target="70iiwPook1v8mqMDfSH0-84">
          <mxGeometry relative="1" as="geometry" />
        </mxCell>
        <mxCell id="70iiwPook1v8mqMDfSH0-89" value="Claim" style="rounded=0;whiteSpace=wrap;html=1;" vertex="1" parent="WIyWlLk6GJQsqaUBKTNV-1">
          <mxGeometry x="35" y="690" width="120" height="20" as="geometry" />
        </mxCell>
        <mxCell id="70iiwPook1v8mqMDfSH0-91" value="" style="endArrow=classic;html=1;rounded=0;" edge="1" parent="WIyWlLk6GJQsqaUBKTNV-1">
          <mxGeometry width="50" height="50" relative="1" as="geometry">
            <mxPoint x="230" y="390" as="sourcePoint" />
            <mxPoint x="230" y="700" as="targetPoint" />
          </mxGeometry>
        </mxCell>
        <mxCell id="70iiwPook1v8mqMDfSH0-92" value="If WIN" style="edgeLabel;html=1;align=center;verticalAlign=middle;resizable=0;points=[];" vertex="1" connectable="0" parent="70iiwPook1v8mqMDfSH0-91">
          <mxGeometry x="0.7624" relative="1" as="geometry">
            <mxPoint as="offset" />
          </mxGeometry>
        </mxCell>
      </root>
    </mxGraphModel>
  </diagram>
</mxfile>
